:SAMPLES-PER-SECOND 30
:FULLY-SPECIFIED
:DEGREES
296
root  15.6091 38.7848 7.5024 178.101 80.5075 -173.166
RightUpLeg  2.90214 -8.77702 3.17895
RightLeg  19.7297 -2.24115 0.42513
RightFoot  -12.7832 -0.161084 -5.934
RightToes  2.96859e-009 0 -3.6325e-017
Spine  4.76551 -0.175217 13.5655
Spine1  13.5474 2.1544 -2.77047
HEad  0.996876 -3.6422 -3.9259
LeftShoulder1  -0.511465 4.93856 -29.4975
LeftArm  -14.1845 13.1063 -35.1548
LeftForeArm  91.4804 -77.7289 -115.148
LeftHand  -0.0241205 5.17497 -5.00014
RightShoulder  -0.876943 -5.99231 28.6503
RightArm  -13.6494 -16.1518 34.4701
RightForeArm  115.818 68.5811 148.532
RightHand  -0.0286412 -5.11964 0.0238982
LeftUpLeg  -19.0661 -2.84623 3.53101
LeftLeg  54.8415 -2.38012 -3.15215
LeftFoot  -0.194105 0.152785 -1.5456
LeftToes  3.24686e-010 -7.02549e-012 1.39809e-011
297
root  16.8259 38.8462 7.39082 175.552 81.4091 -176.093
RightUpLeg  5.5567 -8.63479 2.482
RightLeg  17.8888 -1.38196 0.705484
RightFoot  -13.8829 -0.223513 -5.84972
RightToes  2.96859e-009 0 -3.6325e-017
Spine  4.28385 0.309549 13.3497
Spine1  13.6286 2.62015 -3.58046
HEad  1.49715 -3.60404 -4.24495
LeftShoulder1  -0.535809 4.99899 -29.673
LeftArm  -15.0337 13.321 -34.5582
LeftForeArm  92.8553 -77.5148 -117.019
LeftHand  -0.0236717 5.16853 -4.98002
RightShoulder  -0.796182 -5.78642 28.2569
RightArm  -12.983 -15.5647 35.1046
RightForeArm  113.615 68.8571 147.85
RightHand  -0.0296713 -5.08027 -1.16725
LeftUpLeg  -20.163 -3.0288 2.96419
LeftLeg  45.5105 -3.09717 -2.9696
LeftFoot  -0.883805 0.0925126 -0.990237
LeftToes  3.24686e-010 -7.02549e-012 1.39809e-011
298
root  18.0742 38.8389 7.33201 177.046 81.8598 -174.817
RightUpLeg  8.67381 -8.10136 2.81412
RightLeg  15.2936 -1.40504 0.573931
RightFoot  -14.7481 -0.262713 -5.48761
RightToes  2.96859e-009 0 -3.6325e-017
Spine  3.6649 0.761543 13.4753
Spine1  14.0546 2.98823 -4.17307
HEad  1.16833 -3.25296 -4.04298
LeftShoulder1  -0.544072 5.01108 -29.9358
LeftArm  -15.2214 12.7589 -33.7245
LeftForeArm  92.6636 -77.4776 -117.2
LeftHand  -0.0117746 4.91286 -4.93947
RightShoulder  -0.767202 -5.71362 28.0729
RightArm  -12.9717 -15.1724 36.0643
RightForeArm  114.148 68.8812 147.868
RightHand  -0.0288746 -5.02117 -1.12133
LeftUpLeg  -20.0562 -2.98931 3.13337
LeftLeg  34.1491 -4.30452 -2.79313
LeftFoot  -1.61416 0.229999 -2.56733
LeftToes  3.24686e-010 -7.02549e-012 1.39809e-011
299
root  19.3489 38.7835 7.25056 177.97 82.1966 -174.62
RightUpLeg  11.26 -8.03409 2.75546
RightLeg  12.9049 -1.02317 0.707957
RightFoot  -15.7558 -0.302194 -5.0704
RightToes  2.96859e-009 0 -3.6325e-017
Spine  2.59408 1.16451 13.1701
Spine1  14.1375 3.24547 -4.8146
HEad  1.70557 -3.30838 -4.12159
LeftShoulder1  -0.523952 4.96731 -29.6394
LeftArm  -15.7262 12.9561 -33.8305
LeftForeArm  93.1947 -77.392 -117.9
LeftHand  -0.0192092 5.03055 -4.17197
RightShoulder  -0.820812 -5.8286 28.6904
RightArm  -12.6055 -14.56 35.9588
RightForeArm  113.5 69.0762 147.476
RightHand  -0.0235866 -5.05139 -1.79407
LeftUpLeg  -19.491 -1.85008 2.65393
LeftLeg  21.4345 -6.13429 -2.25277
LeftFoot  -0.692535 0.315018 -3.35057
LeftToes  3.24686e-010 -7.02549e-012 1.39809e-011
300
root  20.659 38.6781 7.19202 176.417 82.2957 -176.731
RightUpLeg  13.8986 -8.13226 2.31618
RightLeg  10.9589 -0.644279 0.798702
RightFoot  -16.9231 -0.352726 -4.88621
RightToes  2.96859e-009 0 -3.6325e-017
Spine  1.28692 1.58509 11.2352
Spine1  14.7347 3.11965 -3.80659
HEad  2.30868 -2.6312 -4.49996
LeftShoulder1  -0.544162 5.01924 -29.7473
LeftArm  -16.2434 13.0203 -33.7946
LeftForeArm  93.8536 -77.2967 -118.678
LeftHand  -0.0352969 5.4111 -4.83057
RightShoulder  -0.749069 -5.64679 28.3111
RightArm  -12.6971 -14.5586 36.6297
RightForeArm  113.943 69.058 147.555
RightHand  -0.0224484 -4.97877 -1.5941
LeftUpLeg  -18.0699 0.0688123 1.44812
LeftLeg  9.05784 -7.96277 -1.23309
LeftFoot  -0.815751 0.46543 -4.98817
LeftToes  3.24686e-010 -7.02549e-012 1.39809e-011
301
root  22.0075 38.4724 7.08584 175.151 82.7826 -178.392
RightUpLeg  16.1813 -8.31501 1.66508
RightLeg  10.3015 0.22362 0.99421
RightFoot  -18.4438 -0.416618 -4.68994
RightToes  2.96859e-009 0 -3.6325e-017
Spine  0.351348 1.8864 10.4223
Spine1  15.0703 3.50461 -4.47231
HEad  2.41436 -2.48278 -3.55736
LeftShoulder1  -0.542028 5.03852 -29.1493
LeftArm  -16.3435 13.1706 -33.8556
LeftForeArm  94.7006 -77.1913 -119.547
LeftHand  -0.0181475 5.06392 -4.88816
RightShoulder  -0.788073 -5.73536 28.6876
RightArm  -12.5252 -14.1961 36.9176
RightForeArm  113.478 69.2302 147.214
RightHand  -0.0231251 -5.0995 -1.59657
LeftUpLeg  -16.7385 2.16587 0.316627
LeftLeg  0.364016 -5.80008 -0.54548
LeftFoot  0.024741 0.614644 -6.1633
LeftToes  3.24686e-010 -7.02549e-012 1.39809e-011
